<?xml version="1.0" encoding="UTF-8"?>
<!DOCTYPE svg  PUBLIC '-//W3C//DTD SVG 1.1//EN'  'http://www.w3.org/Graphics/SVG/1.1/DTD/svg11.dtd'>
<svg enable-background="new 0 0 1708.6316 2297.5237" version="1.1" viewBox="0 0 1708.6316 2297.5237" xml:space="preserve" xmlns="http://www.w3.org/2000/svg">
	<polygon points="683.82 2237.3 733.07 2103.3 722.82 1945 844.57 1786.5 969.57 1946 962.32 2113.3 1011.8 2235.3 1029.1 2100.5 1064.1 1968.5 990.82 1628.8 896.82 1558 789.82 1558 695.07 1626.5 628.32 1966.5 665.07 2100.8" fill="#A39179"/>
	<polygon points="844.65 1786.3 930.82 1897.1 846.19 2001.1 760.46 1896.1" fill="#53504D"/>
	<polygon points="890.65 1558 843.98 1698.8 793.98 1558" fill="#585653"/>
	<polygon points="628.32 1966.5 595.32 2067.6 453.32 1856.1 624.98 1407.8 636.32 1466.1 762.82 1554.1 926.98 1554.9 1052.8 1467.4 1064.1 1408.9 1240.8 1861.3 1098.5 2070.4 1064.1 1968.5 990.82 1628.8 896.82 1558 789.82 1558 695.07 1626.5" fill="#BFB7AC"/>
	<polygon points="625.79 1407 758.46 1418.3 844.48 1396.6 930.48 1419.1 1064.1 1408.9 1052.8 1467.4 926.98 1554.9 762.82 1554.1 636.32 1466.1" fill="#898C9B"/>
	<polygon points="788.92 1411 809.65 1443.4 878.82 1443.4 900.92 1411.4 844.48 1396.6"/>
	<polygon points="453.32 1856.1 446.44 1879.4 444.82 1414.3 534.07 1301.4 553.44 1326.1 555.42 1348 618.54 1405.8 624.98 1407.8" fill="#534D4C"/>
	<polygon points="1240.8 1861.3 1250.3 1870.7 1246.3 1413.8 1152.7 1299.5 1135.4 1323.7 1135.4 1350.8 1072.7 1407.8 1064.1 1408.9" fill="#534D4C"/>
	<polygon points="1250.3 1870.7 1252.6 1972.8 1427.8 1687 1366.6 1405.8 1182.3 1257.3 1152.8 1298 1155.9 1302.8 1246.3 1413.8" fill="#B9B3A3"/>
	<polygon points="1427.8 1687 1451.5 1766.4 1504.3 1604.3 1279 1122.8 1182.3 1257.3 1366.6 1405.8" fill="#4D4A4C"/>
	<polygon points="1504.3 1604.3 1546.8 1664.4 1492.6 1286.4 1306 1086.4 1279 1122.8" fill="#A8A193"/>
	<polygon points="1306 1086.4 1492.6 1286.4 1594.5 1386.3 1580.8 1185.8 1394.3 1047.8 1288.1 839.76 1273.3 944.76" fill="#B0A08A"/>
	<polygon points="1552.4 1164.8 1554.5 1069.9 1439.6 883.93 1296.5 783.43 1288.1 839.76 1394.3 1047.8" fill="#C5BDAC"/>
	<polygon points="1554.5 1069.9 1663.8 1246 1608.8 764.01 1343.6 662.51 1247.8 736.01 1296.5 783.43 1439.6 883.93" fill="#A89B86"/>
	<polygon points="1608.8 764.01 1537.6 656.51 1399.6 645.26 1292.3 603.01 1134.8 630.01 1247.8 736.01 1343.6 662.51" fill="#5D5853"/>
	<polygon points="1134.8 630.01 1113.1 607.51 1076.3 607.51 1265.8 471.26 1380.6 324.01 1504.8 381.01 1627.1 660.26 1537.6 656.51 1399.6 645.26 1292.3 603.01" fill="#BCB19E"/>
	<polygon points="446.44 1879.4 446.44 1969.8 269.57 1685.8 326.82 1407.8 505.32 1260 534.07 1301.4 444.82 1414.3" fill="#B9B3A3"/>
	<polygon points="269.57 1685.8 250.82 1772.4 196.82 1607.4 408.32 1127.3 505.32 1260 326.82 1407.8" fill="#4D4A4C"/>
	<polygon points="196.82 1607.4 159.57 1669 205.57 1296 385.57 1093.5 408.32 1127.3" fill="#A8A193"/>
	<polygon points="205.57 1296 112.57 1398.5 118.32 1201 298.07 1058.8 396.07 849.26 415.07 954.51 385.57 1093.5" fill="#B0A08A"/>
	<polygon points="149.09 1176.7 144.32 1086.8 252.82 895.76 387.07 795.01 396.07 849.26 298.07 1058.8" fill="#C5BDAC"/>
	<polygon points="144.32 1086.8 44.816 1260 84.482 782.76 341.48 674.76 437.48 745.43 387.07 795.01 252.82 895.76" fill="#A89B86"/>
	<polygon points="84.482 782.76 152.32 672.01 283.57 660.51 391.32 614.01 541.07 636.76 437.48 745.43 341.48 674.76" fill="#5D5853"/>
	<polygon points="152.32 672.01 62.316 681.01 177.82 398.76 298.07 340.51 413.32 482.76 602.82 614.01 564.57 614.01 541.07 636.76 391.32 614.01 283.57 660.51" fill="#BCB19E"/>
	<polygon points="298.07 340.51 256.07 289.01 364.65 310.26 418.57 354.76 548.07 396.01 673.57 614.01 764.32 674.76 814.07 816.26 734.07 896.26 619.32 830.51 495.32 843.01 387.07 795.01 564.57 614.01 602.82 614.01 413.32 482.76" fill="#E0DACB"/>
	<polygon points="553.3 625.5 600.82 808.26 475.69 704.64" fill="#E8EDF2"/>
	<polygon points="415.07 954.51 535.07 1157 643.82 1021.3 625.82 985.84 652.1 959.55 543.32 889.51 495.32 843.01 387.07 795.01" fill="#E5DDD1"/>
	<polygon points="652.1 959.55 702.98 951.43 677.54 905.6 545.18 890.71" fill="#F5FAFE"/>
	<polygon points="643.82 1021.3 714.15 1052.9 755.48 978.1 734.07 896.26 619.32 830.51 495.32 843.01 545.18 890.71 677.54 905.6 702.98 951.43 652.1 959.55 625.82 985.84" fill="#979692"/>
	<polygon points="553.44 1326.1 548.82 1229.3 535.07 1157 415.07 954.51 385.57 1093.5" fill="#D6D6D6"/>
	<polygon points="551.35 1282.3 648.32 1169.6 714.15 1052.9 643.82 1021.3 535.07 1157 548.82 1229.3" fill="#E1D5C4"/>
	<polygon points="844.48 1396.6 826.32 1321.9 743.65 1293.6 698.15 1222.3 670.19 1130.8 648.32 1169.6 551.35 1282.3 555.42 1348 618.54 1405.8 757.65 1419.1" fill="#E8EEF2"/>
	<polygon points="844.48 1396.6 930.48 1419.1 1064.1 1408.9 1072.7 1407.8 1135.4 1350.8 1135.4 1282.3 1039.3 1169.3 1015.6 1130.8 989.96 1221.8 943.07 1294.3 861.07 1322" fill="#E8EEF2"/>
	<polygon points="698.15 1222.3 825.32 1248.3 844.48 1275 862.32 1248.6 989.96 1221.8 943.07 1294.3 861.07 1322 844.48 1396.6 826.32 1321.9 743.65 1293.6" fill="#65615C"/>
	<polygon points="698.15 1222.3 841.82 1162.8 989.96 1221.8 862.32 1248.6 844.48 1275 825.32 1248.3" fill="#F6EDE2"/>
	<polygon points="364.65 310.26 270.82 232.43 242.65 80.929 612.32 244.1 700.15 416.26 839.65 503.76 976.48 412.6 1064.1 232.76 1436.8 60.262 1409.6 214.26 1258.6 342.51 1128.3 386.76 1032.6 558.26 839.73 648.26 643.14 561.15 548.07 396.01 418.57 354.76" fill="#BFAF95"/>
	<polygon points="698.15 1222.3 670.19 1130.8 755.48 978.1 734.07 896.26 814.07 816.26 764.32 674.76 673.57 614.01 643.14 561.15 839.73 648.26 1032.6 558.26 1003.8 609.76 914.57 673.51 867.07 815.76 950.07 896.26 927.32 976.01 1015.6 1130.8 989.96 1221.8 841.82 1162.8" fill="#F9F2E7"/>
	<polygon points="612.32 244.1 602.82 161.1 530.48 125.76 612.32 136.43 753.4 212.85 839.73 477.76 920.52 209.8 1060.1 125.76 1143.5 111.1 1072.5 151.76 1064.1 232.76 976.48 412.6 839.65 503.76 700.15 416.26" fill="#F2ECE2"/>
	<polygon points="771.79 269.27 836.98 315.26 903.41 266.56 839.73 477.76" fill="#837D75"/>
	<polygon points="1380.6 324.01 1422.3 270.76 1315.5 294.15 1258.6 342.51 1128.3 386.76 1003.8 609.76 914.57 673.51 867.07 815.76 950.07 896.26 1063.1 826.26 1186.1 837.26 1296.5 783.43 1113.1 607.51 1076.3 607.51 1265.8 471.26" fill="#E0DACB"/>
	<polygon points="1205.8 697.26 1080.6 803.51 1124.6 619.46" fill="#E8EDF2"/>
	<polygon points="1135.4 1323.7 1135.4 1282.3 1151.1 1152.1 1273.3 944.76 1306 1086.4" fill="#D6D6D6"/>
	<polygon points="1135.4 1282.3 1039.3 1169.3 1015.6 1130.8 970.03 1050.9 1040.1 1019.1 1151.1 1152.1" fill="#E1D5C4"/>
	<polygon points="1040.1 1019.1 1057.3 980.76 1032.6 956.01 1139.6 884.51 1186.1 837.26 1296.5 783.43 1273.3 944.76 1151.1 1152.1" fill="#E5DDD1"/>
	<polygon points="1032.6 956.01 982.82 948.26 1007.7 902.6 1139.6 884.51 1186.1 837.26 1063.1 826.26 950.07 896.26 927.32 976.01 970.03 1050.9 1040.1 1019.1 1057.3 980.76" fill="#979692"/>
	<polygon points="1032.6 956.01 982.82 948.26 1007.7 902.6 1139.6 884.51" fill="#F5FAFE"/>
</svg>
